<mxfile host="app.diagrams.net" modified="2022-12-23T05:42:56.921Z" agent="5.0 (Windows NT 10.0; Win64; x64) AppleWebKit/537.36 (KHTML, like Gecko) Chrome/108.0.0.0 Safari/537.36" etag="hRv9754qtyq964aaKPff" version="20.4.0" type="github">
  <diagram id="prtHgNgQTEPvFCAcTncT" name="Page-1">
    <mxGraphModel dx="3129" dy="1122" grid="1" gridSize="10" guides="1" tooltips="1" connect="1" arrows="1" fold="1" page="1" pageScale="1" pageWidth="827" pageHeight="1169" math="0" shadow="0">
      <root>
        <mxCell id="0" />
        <mxCell id="1" parent="0" />
        <mxCell id="dNxyNK7c78bLwvsdeMH5-11" value="组织架构" style="swimlane;html=1;startSize=20;horizontal=1;containerType=tree;glass=0;" parent="1" vertex="1">
          <mxGeometry x="-760" y="80" width="1520" height="1010" as="geometry" />
        </mxCell>
        <UserObject label="主管部门" name="Tessa Miller" position="CFO" location="Office 1" email="me@example.com" placeholders="1" link="https://www.draw.io" id="dNxyNK7c78bLwvsdeMH5-12">
          <mxCell style="label;image=https://cdn3.iconfinder.com/data/icons/user-avatars-1/512/users-3-128.png;whiteSpace=wrap;html=1;rounded=0;glass=0;treeMoving=1;treeFolding=1;" parent="dNxyNK7c78bLwvsdeMH5-11" vertex="1">
            <mxGeometry x="30" y="50" width="150" height="70" as="geometry" />
          </mxCell>
        </UserObject>
        <mxCell id="dNxyNK7c78bLwvsdeMH5-15" value="" style="endArrow=blockThin;endFill=1;fontSize=11;edgeStyle=elbowEdgeStyle;elbow=vertical;rounded=0;" parent="dNxyNK7c78bLwvsdeMH5-11" source="dNxyNK7c78bLwvsdeMH5-12" target="dNxyNK7c78bLwvsdeMH5-16" edge="1">
          <mxGeometry relative="1" as="geometry" />
        </mxCell>
        <UserObject label="国资委" name="Evan Valet" position="HR Director" location="Office 4" email="me@example.com" placeholders="1" link="https://www.draw.io" id="dNxyNK7c78bLwvsdeMH5-16">
          <mxCell style="label;image=https://cdn3.iconfinder.com/data/icons/user-avatars-1/512/users-9-2-128.png;whiteSpace=wrap;html=1;rounded=0;glass=0;treeFolding=1;treeMoving=1;" parent="dNxyNK7c78bLwvsdeMH5-11" vertex="1">
            <mxGeometry x="30" y="190" width="150" height="80" as="geometry" />
          </mxCell>
        </UserObject>
        <mxCell id="uz1GMiWV1mz2NaM4AfQ4-1" value="" style="endArrow=blockThin;endFill=1;fontSize=11;edgeStyle=elbowEdgeStyle;elbow=vertical;rounded=0;" edge="1" target="uz1GMiWV1mz2NaM4AfQ4-2" source="dNxyNK7c78bLwvsdeMH5-16" parent="dNxyNK7c78bLwvsdeMH5-11">
          <mxGeometry relative="1" as="geometry">
            <mxPoint x="390" y="200" as="sourcePoint" />
          </mxGeometry>
        </mxCell>
        <UserObject label="管养单位" name="Evan Valet" position="HR Director" location="Office 4" email="me@example.com" placeholders="1" link="https://www.draw.io" id="uz1GMiWV1mz2NaM4AfQ4-2">
          <mxCell style="label;image=https://cdn3.iconfinder.com/data/icons/user-avatars-1/512/users-9-2-128.png;whiteSpace=wrap;html=1;rounded=0;glass=0;treeFolding=1;treeMoving=1;" vertex="1" parent="dNxyNK7c78bLwvsdeMH5-11">
            <mxGeometry x="30" y="340" width="150" height="80" as="geometry" />
          </mxCell>
        </UserObject>
        <mxCell id="uz1GMiWV1mz2NaM4AfQ4-4" value="" style="edgeStyle=orthogonalEdgeStyle;rounded=0;orthogonalLoop=1;jettySize=auto;html=1;" edge="1" source="dNxyNK7c78bLwvsdeMH5-12" target="uz1GMiWV1mz2NaM4AfQ4-5" parent="dNxyNK7c78bLwvsdeMH5-11">
          <mxGeometry relative="1" as="geometry" />
        </mxCell>
        <UserObject label="领导" name="Tessa Miller" position="CFO" location="Office 1" email="me@example.com" placeholders="1" link="https://www.draw.io" id="uz1GMiWV1mz2NaM4AfQ4-5">
          <mxCell style="label;image=https://cdn3.iconfinder.com/data/icons/user-avatars-1/512/users-3-128.png;whiteSpace=wrap;html=1;rounded=0;glass=0;treeMoving=1;treeFolding=1;" vertex="1" parent="dNxyNK7c78bLwvsdeMH5-11">
            <mxGeometry x="400" y="50" width="100" height="70" as="geometry" />
          </mxCell>
        </UserObject>
        <mxCell id="uz1GMiWV1mz2NaM4AfQ4-6" value="" style="edgeStyle=orthogonalEdgeStyle;rounded=0;orthogonalLoop=1;jettySize=auto;html=1;" edge="1" target="uz1GMiWV1mz2NaM4AfQ4-7" source="uz1GMiWV1mz2NaM4AfQ4-5" parent="dNxyNK7c78bLwvsdeMH5-11">
          <mxGeometry relative="1" as="geometry">
            <mxPoint x="230" y="165" as="sourcePoint" />
          </mxGeometry>
        </mxCell>
        <UserObject label="分管&lt;br&gt;领导" name="Tessa Miller" position="CFO" location="Office 1" email="me@example.com" placeholders="1" link="https://www.draw.io" id="uz1GMiWV1mz2NaM4AfQ4-7">
          <mxCell style="label;image=https://cdn3.iconfinder.com/data/icons/user-avatars-1/512/users-3-128.png;whiteSpace=wrap;html=1;rounded=0;glass=0;treeMoving=1;treeFolding=1;" vertex="1" parent="dNxyNK7c78bLwvsdeMH5-11">
            <mxGeometry x="720" y="50" width="100" height="70" as="geometry" />
          </mxCell>
        </UserObject>
        <mxCell id="uz1GMiWV1mz2NaM4AfQ4-8" value="" style="edgeStyle=orthogonalEdgeStyle;rounded=0;orthogonalLoop=1;jettySize=auto;html=1;" edge="1" target="uz1GMiWV1mz2NaM4AfQ4-9" source="uz1GMiWV1mz2NaM4AfQ4-7" parent="dNxyNK7c78bLwvsdeMH5-11">
          <mxGeometry relative="1" as="geometry">
            <mxPoint x="380" y="165" as="sourcePoint" />
          </mxGeometry>
        </mxCell>
        <UserObject label="科长" name="Tessa Miller" position="CFO" location="Office 1" email="me@example.com" placeholders="1" link="https://www.draw.io" id="uz1GMiWV1mz2NaM4AfQ4-9">
          <mxCell style="label;image=https://cdn3.iconfinder.com/data/icons/user-avatars-1/512/users-3-128.png;whiteSpace=wrap;html=1;rounded=0;glass=0;treeMoving=1;treeFolding=1;" vertex="1" parent="dNxyNK7c78bLwvsdeMH5-11">
            <mxGeometry x="1040" y="50" width="100" height="70" as="geometry" />
          </mxCell>
        </UserObject>
        <mxCell id="uz1GMiWV1mz2NaM4AfQ4-10" value="" style="edgeStyle=orthogonalEdgeStyle;rounded=0;orthogonalLoop=1;jettySize=auto;html=1;" edge="1" target="uz1GMiWV1mz2NaM4AfQ4-11" source="uz1GMiWV1mz2NaM4AfQ4-9" parent="dNxyNK7c78bLwvsdeMH5-11">
          <mxGeometry relative="1" as="geometry">
            <mxPoint x="520" y="165" as="sourcePoint" />
          </mxGeometry>
        </mxCell>
        <UserObject label="科室" name="Tessa Miller" position="CFO" location="Office 1" email="me@example.com" placeholders="1" link="https://www.draw.io" id="uz1GMiWV1mz2NaM4AfQ4-11">
          <mxCell style="label;image=https://cdn3.iconfinder.com/data/icons/user-avatars-1/512/users-3-128.png;whiteSpace=wrap;html=1;rounded=0;glass=0;treeMoving=1;treeFolding=1;" vertex="1" parent="dNxyNK7c78bLwvsdeMH5-11">
            <mxGeometry x="1360" y="50" width="100" height="70" as="geometry" />
          </mxCell>
        </UserObject>
        <mxCell id="uz1GMiWV1mz2NaM4AfQ4-19" value="" style="endArrow=blockThin;endFill=1;fontSize=11;edgeStyle=elbowEdgeStyle;elbow=vertical;rounded=0;exitX=1;exitY=0.5;exitDx=0;exitDy=0;" edge="1" target="uz1GMiWV1mz2NaM4AfQ4-20" source="dNxyNK7c78bLwvsdeMH5-16" parent="dNxyNK7c78bLwvsdeMH5-11">
          <mxGeometry relative="1" as="geometry">
            <mxPoint x="-655" y="190" as="sourcePoint" />
          </mxGeometry>
        </mxCell>
        <UserObject label="领导" name="Evan Valet" position="HR Director" location="Office 4" email="me@example.com" placeholders="1" link="https://www.draw.io" id="uz1GMiWV1mz2NaM4AfQ4-20">
          <mxCell style="label;image=https://cdn3.iconfinder.com/data/icons/user-avatars-1/512/users-9-2-128.png;whiteSpace=wrap;html=1;rounded=0;glass=0;treeFolding=1;treeMoving=1;" vertex="1" parent="dNxyNK7c78bLwvsdeMH5-11">
            <mxGeometry x="400" y="190" width="100" height="80" as="geometry" />
          </mxCell>
        </UserObject>
        <mxCell id="uz1GMiWV1mz2NaM4AfQ4-21" value="" style="endArrow=blockThin;endFill=1;fontSize=11;edgeStyle=elbowEdgeStyle;elbow=vertical;rounded=0;exitX=1;exitY=0.5;exitDx=0;exitDy=0;" edge="1" target="uz1GMiWV1mz2NaM4AfQ4-22" source="uz1GMiWV1mz2NaM4AfQ4-20" parent="dNxyNK7c78bLwvsdeMH5-11">
          <mxGeometry relative="1" as="geometry">
            <mxPoint x="-580" y="310" as="sourcePoint" />
          </mxGeometry>
        </mxCell>
        <UserObject label="部门" name="Evan Valet" position="HR Director" location="Office 4" email="me@example.com" placeholders="1" link="https://www.draw.io" id="uz1GMiWV1mz2NaM4AfQ4-22">
          <mxCell style="label;image=https://cdn3.iconfinder.com/data/icons/user-avatars-1/512/users-9-2-128.png;whiteSpace=wrap;html=1;rounded=0;glass=0;treeFolding=1;treeMoving=1;" vertex="1" parent="dNxyNK7c78bLwvsdeMH5-11">
            <mxGeometry x="720" y="190" width="100" height="80" as="geometry" />
          </mxCell>
        </UserObject>
        <mxCell id="uz1GMiWV1mz2NaM4AfQ4-23" value="" style="endArrow=blockThin;endFill=1;fontSize=11;edgeStyle=elbowEdgeStyle;elbow=vertical;rounded=0;exitX=1;exitY=0.5;exitDx=0;exitDy=0;" edge="1" target="uz1GMiWV1mz2NaM4AfQ4-24" source="uz1GMiWV1mz2NaM4AfQ4-22" parent="dNxyNK7c78bLwvsdeMH5-11">
          <mxGeometry relative="1" as="geometry">
            <mxPoint x="-260" y="310" as="sourcePoint" />
          </mxGeometry>
        </mxCell>
        <UserObject label="经办人" name="Evan Valet" position="HR Director" location="Office 4" email="me@example.com" placeholders="1" link="https://www.draw.io" id="uz1GMiWV1mz2NaM4AfQ4-24">
          <mxCell style="label;image=https://cdn3.iconfinder.com/data/icons/user-avatars-1/512/users-9-2-128.png;whiteSpace=wrap;html=1;rounded=0;glass=0;treeFolding=1;treeMoving=1;" vertex="1" parent="dNxyNK7c78bLwvsdeMH5-11">
            <mxGeometry x="1040" y="190" width="100" height="80" as="geometry" />
          </mxCell>
        </UserObject>
        <mxCell id="uz1GMiWV1mz2NaM4AfQ4-25" value="" style="endArrow=blockThin;endFill=1;fontSize=11;edgeStyle=elbowEdgeStyle;elbow=vertical;rounded=0;exitX=1;exitY=0.5;exitDx=0;exitDy=0;" edge="1" target="uz1GMiWV1mz2NaM4AfQ4-26" source="uz1GMiWV1mz2NaM4AfQ4-2" parent="dNxyNK7c78bLwvsdeMH5-11">
          <mxGeometry relative="1" as="geometry">
            <mxPoint x="-655" y="350" as="sourcePoint" />
          </mxGeometry>
        </mxCell>
        <UserObject label="巡查部门" name="Evan Valet" position="HR Director" location="Office 4" email="me@example.com" placeholders="1" link="https://www.draw.io" id="uz1GMiWV1mz2NaM4AfQ4-26">
          <mxCell style="label;image=https://cdn3.iconfinder.com/data/icons/user-avatars-1/512/users-9-2-128.png;whiteSpace=wrap;html=1;rounded=0;glass=0;treeFolding=1;treeMoving=1;" vertex="1" parent="dNxyNK7c78bLwvsdeMH5-11">
            <mxGeometry x="350" y="340" width="150" height="80" as="geometry" />
          </mxCell>
        </UserObject>
        <mxCell id="uz1GMiWV1mz2NaM4AfQ4-27" value="" style="endArrow=blockThin;endFill=1;fontSize=11;edgeStyle=elbowEdgeStyle;elbow=vertical;rounded=0;entryX=0;entryY=0.5;entryDx=0;entryDy=0;" edge="1" target="uz1GMiWV1mz2NaM4AfQ4-28" source="uz1GMiWV1mz2NaM4AfQ4-2" parent="dNxyNK7c78bLwvsdeMH5-11">
          <mxGeometry relative="1" as="geometry">
            <mxPoint x="-655" y="350" as="sourcePoint" />
            <Array as="points">
              <mxPoint x="230" y="530" />
            </Array>
          </mxGeometry>
        </mxCell>
        <mxCell id="uz1GMiWV1mz2NaM4AfQ4-42" style="edgeStyle=orthogonalEdgeStyle;rounded=0;orthogonalLoop=1;jettySize=auto;html=1;entryX=0;entryY=0.5;entryDx=0;entryDy=0;" edge="1" parent="dNxyNK7c78bLwvsdeMH5-11" source="uz1GMiWV1mz2NaM4AfQ4-28" target="uz1GMiWV1mz2NaM4AfQ4-41">
          <mxGeometry relative="1" as="geometry" />
        </mxCell>
        <UserObject label="养护部门" name="Evan Valet" position="HR Director" location="Office 4" email="me@example.com" placeholders="1" link="https://www.draw.io" id="uz1GMiWV1mz2NaM4AfQ4-28">
          <mxCell style="label;image=https://cdn3.iconfinder.com/data/icons/user-avatars-1/512/users-9-2-128.png;whiteSpace=wrap;html=1;rounded=0;glass=0;treeFolding=1;treeMoving=1;" vertex="1" parent="dNxyNK7c78bLwvsdeMH5-11">
            <mxGeometry x="350" y="490" width="150" height="80" as="geometry" />
          </mxCell>
        </UserObject>
        <mxCell id="uz1GMiWV1mz2NaM4AfQ4-29" value="" style="endArrow=blockThin;endFill=1;fontSize=11;edgeStyle=elbowEdgeStyle;elbow=vertical;rounded=0;exitX=1;exitY=0.5;exitDx=0;exitDy=0;" edge="1" target="uz1GMiWV1mz2NaM4AfQ4-30" source="uz1GMiWV1mz2NaM4AfQ4-26" parent="dNxyNK7c78bLwvsdeMH5-11">
          <mxGeometry relative="1" as="geometry">
            <mxPoint x="-580" y="460" as="sourcePoint" />
          </mxGeometry>
        </mxCell>
        <UserObject label="组长" name="Evan Valet" position="HR Director" location="Office 4" email="me@example.com" placeholders="1" link="https://www.draw.io" id="uz1GMiWV1mz2NaM4AfQ4-30">
          <mxCell style="label;image=https://cdn3.iconfinder.com/data/icons/user-avatars-1/512/users-9-2-128.png;whiteSpace=wrap;html=1;rounded=0;glass=0;treeFolding=1;treeMoving=1;" vertex="1" parent="dNxyNK7c78bLwvsdeMH5-11">
            <mxGeometry x="670" y="340" width="150" height="80" as="geometry" />
          </mxCell>
        </UserObject>
        <mxCell id="uz1GMiWV1mz2NaM4AfQ4-31" value="" style="endArrow=blockThin;endFill=1;fontSize=11;edgeStyle=elbowEdgeStyle;elbow=vertical;rounded=0;exitX=1;exitY=0.5;exitDx=0;exitDy=0;" edge="1" target="uz1GMiWV1mz2NaM4AfQ4-32" source="uz1GMiWV1mz2NaM4AfQ4-30" parent="dNxyNK7c78bLwvsdeMH5-11">
          <mxGeometry relative="1" as="geometry">
            <mxPoint x="-260" y="460" as="sourcePoint" />
          </mxGeometry>
        </mxCell>
        <UserObject label="巡查人员" name="Evan Valet" position="HR Director" location="Office 4" email="me@example.com" placeholders="1" link="https://www.draw.io" id="uz1GMiWV1mz2NaM4AfQ4-32">
          <mxCell style="label;image=https://cdn3.iconfinder.com/data/icons/user-avatars-1/512/users-9-2-128.png;whiteSpace=wrap;html=1;rounded=0;glass=0;treeFolding=1;treeMoving=1;" vertex="1" parent="dNxyNK7c78bLwvsdeMH5-11">
            <mxGeometry x="990" y="340" width="150" height="80" as="geometry" />
          </mxCell>
        </UserObject>
        <mxCell id="uz1GMiWV1mz2NaM4AfQ4-44" style="edgeStyle=orthogonalEdgeStyle;rounded=0;orthogonalLoop=1;jettySize=auto;html=1;entryX=0;entryY=0.5;entryDx=0;entryDy=0;" edge="1" parent="dNxyNK7c78bLwvsdeMH5-11" source="uz1GMiWV1mz2NaM4AfQ4-41" target="uz1GMiWV1mz2NaM4AfQ4-43">
          <mxGeometry relative="1" as="geometry" />
        </mxCell>
        <UserObject label="组长" name="Evan Valet" position="HR Director" location="Office 4" email="me@example.com" placeholders="1" link="https://www.draw.io" id="uz1GMiWV1mz2NaM4AfQ4-41">
          <mxCell style="label;image=https://cdn3.iconfinder.com/data/icons/user-avatars-1/512/users-9-2-128.png;whiteSpace=wrap;html=1;rounded=0;glass=0;treeFolding=1;treeMoving=1;" vertex="1" parent="dNxyNK7c78bLwvsdeMH5-11">
            <mxGeometry x="670" y="490" width="150" height="80" as="geometry" />
          </mxCell>
        </UserObject>
        <UserObject label="养护人员" name="Evan Valet" position="HR Director" location="Office 4" email="me@example.com" placeholders="1" link="https://www.draw.io" id="uz1GMiWV1mz2NaM4AfQ4-43">
          <mxCell style="label;image=https://cdn3.iconfinder.com/data/icons/user-avatars-1/512/users-9-2-128.png;whiteSpace=wrap;html=1;rounded=0;glass=0;treeFolding=1;treeMoving=1;" vertex="1" parent="dNxyNK7c78bLwvsdeMH5-11">
            <mxGeometry x="990" y="490" width="150" height="80" as="geometry" />
          </mxCell>
        </UserObject>
      </root>
    </mxGraphModel>
  </diagram>
</mxfile>
